<svg width="16" height="16" viewBox="0 0 16 16" fill="none" xmlns="http://www.w3.org/2000/svg">
<rect width="16" height="16" rx="4" fill="#4E36AD"/>
<path d="M3.8 5.56L5.32 9.28L6.832 5.56H7.88V11H6.96V8.92L7.08 7.016L5.728 10.36H4.872L3.552 7.008L3.672 8.92V11H2.752V5.56H3.8ZM12.2728 11L10.9128 8.624C10.8221 8.72533 10.7288 8.82667 10.6328 8.928C10.5421 9.02933 10.4461 9.13333 10.3448 9.24V11H9.38481V5.56H10.3448V8.144C10.7501 7.68 11.0968 7.24 11.3848 6.824C11.6728 6.40267 11.9208 5.98133 12.1288 5.56H13.1768C12.9475 6.01867 12.7021 6.45333 12.4408 6.864C12.1848 7.26933 11.9128 7.64533 11.6248 7.992L13.4328 11H12.2728Z" fill="white"/>
</svg>
